<?xml version="1.0" encoding="utf-8"?><!-- Uploaded to: SVG Repo, www.svgrepo.com, Generator: SVG Repo Mixer Tools -->
<svg width="800px" height="800px" viewBox="0 0 24 24" id="conversation" xmlns="http://www.w3.org/2000/svg" class="icon multi-color"><title style="stroke-width: 2;">conversation</title><path id="tertiary-stroke" d="M17.85,8.21A6.27,6.27,0,0,1,21,13.5,5.82,5.82,0,0,1,19.85,17L21,21l-4-1.73A8.5,8.5,0,0,1,13.5,20a7.47,7.47,0,0,1-7.11-4.45" style="fill: none; stroke: #b7b7b7; stroke-linecap: round; stroke-linejoin: round; stroke-width: 2;"></path><path id="secondary-fill" d="M18,9.94C17.72,13.32,14.47,16,10.5,16A8.5,8.5,0,0,1,7,15.27l-.65.28L3,17l1.15-4A5.84,5.84,0,0,1,3,10,8.71,8.71,0,0,1,10.5,6,8.72,8.72,0,0,1,18,9.94Z" style="fill: rgb(44, 169, 188); stroke-width: 2;"></path><path id="primary-stroke" d="M18,9.5c0,3.59-3.36,6.5-7.5,6.5A8.5,8.5,0,0,1,7,15.27l-.65.28L3,17l1.15-4A5.82,5.82,0,0,1,3,9.5C3,5.91,6.36,3,10.5,3c3.63,0,6.66,2.24,7.35,5.21A5.49,5.49,0,0,1,18,9.5Z" style="fill: none; stroke: rgb(0, 0, 0); stroke-linecap: round; stroke-linejoin: round; stroke-width: 2;"></path></svg>