<?xml version="1.0" encoding="utf-8"?><!-- Uploaded to: SVG Repo, www.svgrepo.com, Generator: SVG Repo Mixer Tools -->
<svg width="800px" height="800px" viewBox="0 0 24 24" id="cart" xmlns="http://www.w3.org/2000/svg" class="icon multi-color"><title style="stroke-width: 2;">cart</title><polygon id="tertiary-fill" points="7 10 20 10 19 15 8 16 7 10" style="fill: #b7b7b7; stroke-width: 2;"></polygon><path id="secondary-stroke" d="M11,20.5a.5.5,0,1,1-.5-.5A.5.5,0,0,1,11,20.5Zm5.5-.5a.5.5,0,1,0,.5.5A.5.5,0,0,0,16.5,20Z" style="fill: none; stroke: rgb(44, 169, 188); stroke-linecap: round; stroke-linejoin: round; stroke-width: 2;"></path><path id="primary-stroke" d="M3,3H5.14a1,1,0,0,1,1,.85L6.62,7,8,16l11-1,2-8H6.62" style="fill: none; stroke: rgb(0, 0, 0); stroke-linecap: round; stroke-linejoin: round; stroke-width: 2;"></path></svg>