<?xml version="1.0" encoding="utf-8"?><!-- Uploaded to: SVG Repo, www.svgrepo.com, Generator: SVG Repo Mixer Tools -->
<svg fill="#000000" width="800px" height="800px" viewBox="0 0 24 24" id="temperature" xmlns="http://www.w3.org/2000/svg" class="icon multi-color"><title style="stroke-width: 2;">temperature</title><path id="secondary-fill" d="M12,11a5,5,0,1,0,5,5A5,5,0,0,0,12,11Zm0,7a2,2,0,1,1,2-2A2,2,0,0,1,12,18Z" style="fill: rgb(44, 169, 188); stroke-width: 2;"></path><path id="primary-stroke" d="M14,11.41a5,5,0,1,1-4,0m4,0V5a2,2,0,0,0-2-2,2,2,0,0,0-2,2v6.41M12,14a2,2,0,1,0,2,2A2,2,0,0,0,12,14Z" style="fill: none; stroke: rgb(0, 0, 0); stroke-linecap: round; stroke-linejoin: round; stroke-width: 2;"></path></svg>