<?xml version="1.0" encoding="utf-8"?><!-- Uploaded to: SVG Repo, www.svgrepo.com, Generator: SVG Repo Mixer Tools -->
<svg width="800px" height="800px" viewBox="0 0 24 24" id="bag" xmlns="http://www.w3.org/2000/svg" class="icon multi-color"><title style="stroke-width: 2;">bag</title><path id="tertiary-fill" d="M19,17H5v2.59A1.41,1.41,0,0,0,6.41,21H17.59A1.41,1.41,0,0,0,19,19.59Z" style="fill: #b7b7b7; stroke-width: 2;"></path><path id="primary-stroke" d="M17.92,21H6.08a1,1,0,0,1-1-1.08l.85-11a1,1,0,0,1,1-.92H17.07a1,1,0,0,1,1,.92l.85,11A1,1,0,0,1,17.92,21Z" style="fill: none; stroke: rgb(0, 0, 0); stroke-linecap: round; stroke-linejoin: round; stroke-width: 2;"></path><path id="secondary-stroke" d="M9,11V6a3,3,0,0,1,3-3h0a3,3,0,0,1,3,3v5" style="fill: none; stroke: rgb(44, 169, 188); stroke-linecap: round; stroke-linejoin: round; stroke-width: 2;"></path></svg>