<?xml version="1.0" encoding="utf-8"?><!-- Uploaded to: SVG Repo, www.svgrepo.com, Generator: SVG Repo Mixer Tools -->
<svg width="800px" height="800px" viewBox="0 0 24 24" id="unlock" xmlns="http://www.w3.org/2000/svg" class="icon multi-color"><path id="tertiary-fill" d="M6,9H8A0,0,0,0,1,8,9V21a0,0,0,0,1,0,0H6a1,1,0,0,1-1-1V10A1,1,0,0,1,6,9Z" style="fill: #b7b7b7; stroke-width: 2;"></path><path id="primary-stroke" d="M18,21H6a1,1,0,0,1-1-1V10A1,1,0,0,1,6,9H18a1,1,0,0,1,1,1V20A1,1,0,0,1,18,21ZM15.46,5A4,4,0,0,0,12,3h0A4,4,0,0,0,8,7V9" style="fill: none; stroke: rgb(0, 0, 0); stroke-linecap: round; stroke-linejoin: round; stroke-width: 2;"></path></svg>