<?xml version="1.0" encoding="utf-8"?><!-- Uploaded to: SVG Repo, www.svgrepo.com, Generator: SVG Repo Mixer Tools -->
<svg width="800px" height="800px" viewBox="0 0 24 24" id="touchid" xmlns="http://www.w3.org/2000/svg" class="icon multi-color"><path id="primary-stroke" d="M9,3.58A8.09,8.09,0,0,1,12,3a8,8,0,0,1,8,8c0,1.12,0,5-2,8M6,5.71A8,8,0,0,0,4,11a9.45,9.45,0,0,1-.66,3M13,21a15.93,15.93,0,0,0,3-10" style="fill: none; stroke: rgb(0, 0, 0); stroke-linecap: round; stroke-linejoin: round; stroke-width: 2;"></path><path id="tertiary-stroke" d="M6.17,17.17C7,16.32,8,12.71,8,11a4,4,0,0,1,4-4,3.89,3.89,0,0,1,2,.54" style="fill: none; stroke: #b7b7b7; stroke-linecap: round; stroke-linejoin: round; stroke-width: 2;"></path><path id="secondary-stroke" d="M12,11c0,2-1,8-4,10" style="fill: none; stroke: rgb(44, 169, 188); stroke-linecap: round; stroke-linejoin: round; stroke-width: 2;"></path></svg>