<?xml version="1.0" encoding="utf-8"?><!-- Uploaded to: SVG Repo, www.svgrepo.com, Generator: SVG Repo Mixer Tools -->
<svg width="800px" height="800px" viewBox="0 0 24 24" id="headset" xmlns="http://www.w3.org/2000/svg" class="icon multi-color"><title style="stroke-width: 2;">headset</title><path id="tertiary-stroke" d="M4,17l-.36-5A8.38,8.38,0,0,1,12,3h0a8.38,8.38,0,0,1,8.36,9L20,17" style="fill: none; stroke: #b7b7b7; stroke-linecap: round; stroke-linejoin: round; stroke-width: 2;"></path><path id="secondary-fill" d="M20,16.36V18a3,3,0,0,1-3,3H16a1,1,0,0,1-1-1V15.27A2,2,0,0,1,16,15h1A4,4,0,0,1,20,16.36ZM8,15H7a4,4,0,0,0-3,1.36V18a3,3,0,0,0,3,3H8a1,1,0,0,0,1-1V15.27A2,2,0,0,0,8,15Z" style="fill: rgb(44, 169, 188); stroke-width: 2;"></path><path id="primary-stroke" d="M20,15v3a3,3,0,0,1-3,3H16a1,1,0,0,1-1-1V13a1,1,0,0,1,1-1h1A3,3,0,0,1,20,15ZM8,12H7a3,3,0,0,0-3,3v3a3,3,0,0,0,3,3H8a1,1,0,0,0,1-1V13A1,1,0,0,0,8,12Z" style="fill: none; stroke: rgb(0, 0, 0); stroke-linecap: round; stroke-linejoin: round; stroke-width: 2;"></path></svg>